# xmcd CD database file
#
# Track frame offsets:
#	150
#	15929
#	30007
#	49260
#	62358
#	79408
#	92539
#	107365
#	124299
#	138011
#	154203
#	167804
#
# Disc length: 2411 seconds
#
# Revision: 0
# Processed by: cddbd v1.5.1PL0 Copyright (c) Steve Scherf et al.
# Submitted via: CDex 1.51
#
DISCID=8309690c
DTITLE=Ivan R. Smith - Memories and Music
DYEAR=2002
DGENRE=Country
TTITLE0=I Can Live With That
TTITLE1=This Old House I'm Living In
TTITLE2=I'd Like To Write I Love You
TTITLE3=Whatta Ya Mean Charlene
TTITLE4=Looking Back
TTITLE5=Jack and Jim
TTITLE6=If I Could Live My Life Over
TTITLE7=I Couldn't Be Happier
TTITLE8=Killin' Time
TTITLE9=Boogie Man
TTITLE10=I Won't Even Take Your Memory
TTITLE11=Little Girl Dreamin'
EXTD=YEAR: 2002
EXTT0=
EXTT1=
EXTT2=
EXTT3=
EXTT4=
EXTT5=
EXTT6=
EXTT7=
EXTT8=
EXTT9=
EXTT10=
EXTT11=
PLAYORDER=
